<svg width="800" height="800" viewBox="0 0 800 800" fill="none" xmlns="http://www.w3.org/2000/svg">
<circle cx="400" cy="400" r="400" fill="white"/>
<path d="M316.369 359.94L289.369 447H273.109L255.289 390.06C255.009 389.26 254.729 388.38 254.449 387.42C254.169 386.46 253.909 385.44 253.669 384.36C253.429 385.44 253.169 386.46 252.889 387.42C252.609 388.38 252.329 389.26 252.049 390.06L234.049 447H217.729L190.789 359.94H205.909C207.469 359.94 208.769 360.3 209.809 361.02C210.889 361.74 211.589 362.7 211.909 363.9L225.409 412.98C225.729 414.34 226.049 415.82 226.369 417.42C226.729 418.98 227.069 420.64 227.389 422.4C227.749 420.6 228.129 418.92 228.529 417.36C228.929 415.8 229.369 414.34 229.849 412.98L245.569 363.9C245.889 362.9 246.569 362 247.609 361.2C248.689 360.36 249.989 359.94 251.509 359.94H256.789C258.349 359.94 259.609 360.32 260.569 361.08C261.569 361.8 262.309 362.74 262.789 363.9L278.449 412.98C278.929 414.26 279.369 415.66 279.769 417.18C280.169 418.66 280.549 420.24 280.909 421.92C281.229 420.24 281.529 418.66 281.809 417.18C282.129 415.66 282.449 414.26 282.769 412.98L296.269 363.9C296.549 362.86 297.229 361.94 298.309 361.14C299.389 360.34 300.689 359.94 302.209 359.94H316.369ZM467.283 359.94L440.283 447H424.023L406.203 390.06C405.923 389.26 405.643 388.38 405.363 387.42C405.083 386.46 404.823 385.44 404.583 384.36C404.343 385.44 404.083 386.46 403.803 387.42C403.523 388.38 403.243 389.26 402.963 390.06L384.963 447H368.643L341.703 359.94H356.823C358.383 359.94 359.683 360.3 360.723 361.02C361.803 361.74 362.503 362.7 362.823 363.9L376.323 412.98C376.643 414.34 376.963 415.82 377.283 417.42C377.643 418.98 377.983 420.64 378.303 422.4C378.663 420.6 379.043 418.92 379.443 417.36C379.843 415.8 380.283 414.34 380.763 412.98L396.483 363.9C396.803 362.9 397.483 362 398.523 361.2C399.603 360.36 400.903 359.94 402.423 359.94H407.703C409.263 359.94 410.523 360.32 411.483 361.08C412.483 361.8 413.223 362.74 413.703 363.9L429.363 412.98C429.843 414.26 430.283 415.66 430.683 417.18C431.083 418.66 431.463 420.24 431.823 421.92C432.143 420.24 432.443 418.66 432.723 417.18C433.043 415.66 433.363 414.26 433.683 412.98L447.183 363.9C447.463 362.86 448.143 361.94 449.223 361.14C450.303 360.34 451.603 359.94 453.123 359.94H467.283ZM618.197 359.94L591.197 447H574.937L557.117 390.06C556.837 389.26 556.557 388.38 556.277 387.42C555.997 386.46 555.737 385.44 555.497 384.36C555.257 385.44 554.997 386.46 554.717 387.42C554.437 388.38 554.157 389.26 553.877 390.06L535.877 447H519.557L492.617 359.94H507.737C509.297 359.94 510.597 360.3 511.637 361.02C512.717 361.74 513.417 362.7 513.737 363.9L527.237 412.98C527.557 414.34 527.877 415.82 528.197 417.42C528.557 418.98 528.897 420.64 529.217 422.4C529.577 420.6 529.957 418.92 530.357 417.36C530.757 415.8 531.197 414.34 531.677 412.98L547.397 363.9C547.717 362.9 548.397 362 549.437 361.2C550.517 360.36 551.817 359.94 553.337 359.94H558.617C560.177 359.94 561.437 360.32 562.397 361.08C563.397 361.8 564.137 362.74 564.617 363.9L580.277 412.98C580.757 414.26 581.197 415.66 581.597 417.18C581.997 418.66 582.377 420.24 582.737 421.92C583.057 420.24 583.357 418.66 583.637 417.18C583.957 415.66 584.277 414.26 584.597 412.98L598.097 363.9C598.377 362.86 599.057 361.94 600.137 361.14C601.217 360.34 602.517 359.94 604.037 359.94H618.197Z" fill="black"/>
<path d="M653.01 239.762H157.962" stroke="black" stroke-width="25"/>
<path d="M411.009 110.54C473.182 142.507 544.179 208.583 540.731 329.14" stroke="black" stroke-width="25"/>
<path d="M396.009 108.539C336.812 142.015 266.474 214.401 266.045 333.432" stroke="black" stroke-width="25"/>
<path d="M405.009 101.54V328.54" stroke="black" stroke-width="25"/>
<path fill-rule="evenodd" clip-rule="evenodd" d="M129.463 362.405L106.137 362.396C112.125 299.634 137.796 239.945 180.042 192.169C231.853 133.576 304.498 97.5342 382.497 91.7244C460.496 85.9147 537.679 110.796 597.599 161.067C657.519 211.338 695.437 283.022 703.272 360.844C703.332 361.438 703.39 362.033 703.446 362.627L681.53 363.033L680.176 363.169C672.947 291.369 637.963 225.231 582.68 178.85C527.396 132.469 456.185 109.513 384.221 114.873C312.258 120.233 245.233 153.486 197.431 207.546C158.947 251.067 135.371 305.304 129.463 362.405Z" fill="black"/>
<path d="M652.862 559.767H157.814" stroke="black" stroke-width="25"/>
<path d="M410.861 688.989C473.034 657.022 544.031 590.946 540.583 470.389" stroke="black" stroke-width="25"/>
<path d="M395.861 690.989C336.664 657.513 266.326 585.127 265.897 466.097" stroke="black" stroke-width="25"/>
<path d="M404.861 697.989V470.989" stroke="black" stroke-width="25"/>
<path fill-rule="evenodd" clip-rule="evenodd" d="M129.315 437.124L105.989 437.133C111.977 499.895 137.648 559.583 179.894 607.359C231.705 665.952 304.35 701.994 382.349 707.804C460.348 713.614 537.531 688.732 597.451 638.461C657.371 588.191 695.289 516.506 703.124 438.685C703.184 438.09 703.242 437.496 703.298 436.901L681.382 436.496L680.028 436.36C672.799 508.159 637.816 574.297 582.532 620.678C527.248 667.059 456.037 690.016 384.073 684.656C312.11 679.295 245.085 646.042 197.283 591.983C158.799 548.461 135.223 494.225 129.315 437.124Z" fill="black"/>
</svg>
