<svg width="1000" height="1000" viewBox="0 0 1000 1000" fill="none" xmlns="http://www.w3.org/2000/svg">
<circle cx="500" cy="500" r="500" fill="white"/>
<path d="M725.233 297.903L725.233 297.904C725.288 297.952 725.343 297.999 725.397 298.047C736.223 307.506 738.634 309.965 739.933 312.824C741.238 315.698 741.5 319.147 741.5 333.691V765.933C741.5 780.429 741.473 790.043 740.513 797.186C739.601 803.969 738.058 806.624 736.374 808.308C734.691 809.992 732.036 811.534 725.253 812.446C718.11 813.407 708.496 813.433 694 813.433H326C311.504 813.433 301.89 813.407 294.747 812.446C287.964 811.534 285.309 809.992 283.626 808.308C281.942 806.624 280.399 803.969 279.487 797.186C278.527 790.043 278.5 780.429 278.5 765.933V224.933C278.5 210.438 278.527 200.824 279.487 193.681C280.399 186.897 281.942 184.243 283.626 182.559C285.309 180.875 287.964 179.332 294.747 178.42C301.89 177.46 311.504 177.433 326 177.433H569.486C581.536 177.433 584.41 177.618 586.891 178.549C589.372 179.48 591.659 181.232 600.735 189.16L725.233 297.903Z" fill="white" stroke="black" stroke-width="25"/>
<path d="M593.412 323.947L592.892 192.65C592.878 189.221 596.903 187.365 599.502 189.603L729.941 301.918C732.539 304.156 731.302 308.411 727.909 308.907L597.99 327.889C595.583 328.241 593.422 326.38 593.412 323.947Z" fill="#D9D7D7" stroke="black" stroke-width="20"/>
<g filter="url(#filter0_d)">
<path d="M807 730.133C807 801.182 749.235 858.779 677.977 858.779C606.72 858.779 548.955 801.182 548.955 730.133C548.955 659.084 606.72 601.487 677.977 601.487C696.782 601.487 714.647 605.498 730.759 612.709C737.032 615.517 743.038 618.809 748.731 622.538C783.827 645.529 807 685.133 807 730.133Z" fill="white"/>
<path d="M797 730.133C797 795.632 743.739 848.779 677.977 848.779C612.215 848.779 558.955 795.632 558.955 730.133C558.955 664.634 612.215 611.487 677.977 611.487C695.348 611.487 711.823 615.19 726.674 621.837C732.458 624.426 737.999 627.462 743.251 630.903C775.654 652.13 797 688.654 797 730.133Z" stroke="black" stroke-width="20"/>
</g>
<path fill-rule="evenodd" clip-rule="evenodd" d="M547.689 800.933C540.948 788.262 535.994 774.578 533.067 760.262C525.633 723.885 531.823 686.017 550.442 653.986C569.06 621.955 598.781 598.042 633.851 586.874C665.201 576.891 698.833 577.728 729.5 589.056V611.811C701.235 599.495 670.625 598.677 641 606.933C610.631 616.604 585.892 637.199 568 664.433C552.392 692.199 546.125 724.696 552.563 756.196C555.848 772.268 562.086 787.42 570.818 800.933H547.689Z" fill="#D9D7D7" fill-opacity="0.5"/>
<path d="M720.328 733.844L695.061 766.977C693.558 768.942 692.678 771.581 692.598 774.362C692.519 777.144 693.245 779.861 694.631 781.969C696.017 784.077 697.96 785.419 700.07 785.724C702.18 786.03 704.3 785.277 706.003 783.616L706.944 782.544L746.547 730.628L747.309 729.453L747.757 728.601L748.317 727.206L748.686 725.855L748.854 724.871L748.966 723.96L749 722.58L748.955 721.713L748.787 720.333L748.451 718.864L747.925 717.425L747.533 716.617C747.242 716.054 746.912 715.528 746.547 715.045L747.309 716.206C747.076 715.796 746.821 715.409 746.547 715.045L706.944 663.129C705.443 661.176 703.436 660.038 701.323 659.94C699.21 659.842 697.147 660.793 695.545 662.603C693.943 664.412 692.921 666.947 692.682 669.701C692.442 672.456 693.004 675.227 694.254 677.463L695.061 678.697L720.328 711.814H679C638.109 711.814 610.322 742.318 609.045 785.79L609 788.918C609 791.84 609.885 794.641 611.46 796.707C613.036 798.773 615.172 799.933 617.4 799.933C619.628 799.933 621.764 798.773 623.34 796.707C624.915 794.641 625.8 791.84 625.8 788.918C625.8 757.666 644.75 735.195 676.122 733.903L679 733.844H720.328L695.061 766.977L720.328 733.844Z" fill="black"/>
<rect x="172" y="401.933" width="336" height="165" rx="35" fill="#5672B5" fill-opacity="0.6"/>
<rect x="179.5" y="396.433" width="337" height="150" rx="27.5" fill="white" stroke="#183884" stroke-width="15"/>
<path d="M243.78 438.813V464.923H277.66V480.813H243.78V507.483H287.32V523.933H222.64V422.363H287.32V438.813H243.78ZM415.101 473.113C415.101 480.533 413.841 487.37 411.321 493.623C408.847 499.83 405.324 505.173 400.751 509.653C396.224 514.133 390.764 517.633 384.371 520.153C377.977 522.673 370.884 523.933 363.091 523.933H324.031V422.363H363.091C370.884 422.363 377.977 423.623 384.371 426.143C390.764 428.663 396.224 432.186 400.751 436.713C405.324 441.193 408.847 446.536 411.321 452.743C413.841 458.95 415.101 465.74 415.101 473.113ZM393.541 473.113C393.541 467.793 392.841 463.01 391.441 458.763C390.041 454.516 388.034 450.923 385.421 447.983C382.807 445.043 379.611 442.78 375.831 441.193C372.097 439.606 367.851 438.813 363.091 438.813H345.171V507.483H363.091C367.851 507.483 372.097 506.713 375.831 505.173C379.611 503.586 382.807 501.323 385.421 498.383C388.034 495.396 390.041 491.78 391.441 487.533C392.841 483.286 393.541 478.48 393.541 473.113ZM472.675 523.933H451.535V422.363H472.675V523.933Z" fill="#183884"/>
<path d="M243.78 438.813V437.813H242.78V438.813H243.78ZM243.78 464.923H242.78V465.923H243.78V464.923ZM277.66 464.923H278.66V463.923H277.66V464.923ZM277.66 480.813V481.813H278.66V480.813H277.66ZM243.78 480.813V479.813H242.78V480.813H243.78ZM243.78 507.483H242.78V508.483H243.78V507.483ZM287.32 507.483H288.32V506.483H287.32V507.483ZM287.32 523.933V524.933H288.32V523.933H287.32ZM222.64 523.933H221.64V524.933H222.64V523.933ZM222.64 422.363V421.363H221.64V422.363H222.64ZM287.32 422.363H288.32V421.363H287.32V422.363ZM287.32 438.813V439.813H288.32V438.813H287.32ZM242.78 438.813V464.923H244.78V438.813H242.78ZM243.78 465.923H277.66V463.923H243.78V465.923ZM276.66 464.923V480.813H278.66V464.923H276.66ZM277.66 479.813H243.78V481.813H277.66V479.813ZM242.78 480.813V507.483H244.78V480.813H242.78ZM243.78 508.483H287.32V506.483H243.78V508.483ZM286.32 507.483V523.933H288.32V507.483H286.32ZM287.32 522.933H222.64V524.933H287.32V522.933ZM223.64 523.933V422.363H221.64V523.933H223.64ZM222.64 423.363H287.32V421.363H222.64V423.363ZM286.32 422.363V438.813H288.32V422.363H286.32ZM287.32 437.813H243.78V439.813H287.32V437.813ZM411.321 493.623L410.393 493.249L410.392 493.253L411.321 493.623ZM400.751 509.653L400.051 508.939L400.047 508.942L400.751 509.653ZM384.371 520.153L384.737 521.083L384.737 521.083L384.371 520.153ZM324.031 523.933H323.031V524.933H324.031V523.933ZM324.031 422.363V421.363H323.031V422.363H324.031ZM384.371 426.143L384.737 425.213L384.737 425.213L384.371 426.143ZM400.751 436.713L400.043 437.42L400.051 437.427L400.751 436.713ZM411.321 452.743L410.392 453.113L410.394 453.119L411.321 452.743ZM391.441 458.763L390.491 459.076L390.491 459.076L391.441 458.763ZM385.421 447.983L386.168 447.319L385.421 447.983ZM375.831 441.193L375.439 442.113L375.444 442.115L375.831 441.193ZM345.171 438.813V437.813H344.171V438.813H345.171ZM345.171 507.483H344.171V508.483H345.171V507.483ZM375.831 505.173L376.212 506.098L376.218 506.095L375.831 505.173ZM385.421 498.383L386.168 499.047L386.173 499.042L385.421 498.383ZM391.441 487.533L390.491 487.22L390.491 487.22L391.441 487.533ZM414.101 473.113C414.101 480.418 412.861 487.126 410.393 493.249L412.248 493.997C414.821 487.613 416.101 480.648 416.101 473.113H414.101ZM410.392 493.253C407.968 499.336 404.52 504.561 400.051 508.939L401.45 510.367C406.128 505.786 409.727 500.324 412.25 493.993L410.392 493.253ZM400.047 508.942C395.624 513.32 390.281 516.748 384.004 519.223L384.737 521.083C391.247 518.518 396.824 514.946 401.454 510.364L400.047 508.942ZM384.004 519.223C377.742 521.691 370.775 522.933 363.091 522.933V524.933C370.993 524.933 378.213 523.655 384.737 521.083L384.004 519.223ZM363.091 522.933H324.031V524.933H363.091V522.933ZM325.031 523.933V422.363H323.031V523.933H325.031ZM324.031 423.363H363.091V421.363H324.031V423.363ZM363.091 423.363C370.775 423.363 377.742 424.605 384.004 427.073L384.737 425.213C378.213 422.641 370.993 421.363 363.091 421.363V423.363ZM384.004 427.073C390.279 429.547 395.621 432.997 400.044 437.42L401.458 436.006C396.827 431.375 391.249 427.779 384.737 425.213L384.004 427.073ZM400.051 437.427C404.52 441.806 407.968 447.03 410.392 453.113L412.25 452.373C409.727 446.043 406.128 440.581 401.45 435.999L400.051 437.427ZM410.394 453.119C412.861 459.195 414.101 465.856 414.101 473.113H416.101C416.101 465.624 414.82 458.705 412.247 452.367L410.394 453.119ZM394.541 473.113C394.541 467.706 393.829 462.815 392.39 458.45L390.491 459.076C391.852 463.205 392.541 467.88 392.541 473.113H394.541ZM392.39 458.45C390.953 454.091 388.884 450.374 386.168 447.319L384.673 448.647C387.184 451.472 389.128 454.942 390.491 459.076L392.39 458.45ZM386.168 447.319C383.451 444.262 380.13 441.913 376.218 440.271L375.444 442.115C379.092 443.646 382.163 445.824 384.673 448.647L386.168 447.319ZM376.222 440.273C372.345 438.625 367.962 437.813 363.091 437.813V439.813C367.739 439.813 371.849 440.588 375.439 442.113L376.222 440.273ZM363.091 437.813H345.171V439.813H363.091V437.813ZM344.171 438.813V507.483H346.171V438.813H344.171ZM345.171 508.483H363.091V506.483H345.171V508.483ZM363.091 508.483C367.958 508.483 372.338 507.696 376.212 506.098L375.449 504.249C371.856 505.731 367.743 506.483 363.091 506.483V508.483ZM376.218 506.095C380.13 504.453 383.451 502.104 386.168 499.047L384.673 497.719C382.163 500.542 379.092 502.72 375.444 504.251L376.218 506.095ZM386.173 499.042C388.885 495.942 390.954 492.204 392.39 487.846L390.491 487.22C389.128 491.356 387.183 494.851 384.668 497.725L386.173 499.042ZM392.39 487.846C393.83 483.481 394.541 478.566 394.541 473.113H392.541C392.541 478.394 391.852 483.092 390.491 487.22L392.39 487.846ZM472.675 523.933V524.933H473.675V523.933H472.675ZM451.535 523.933H450.535V524.933H451.535V523.933ZM451.535 422.363V421.363H450.535V422.363H451.535ZM472.675 422.363H473.675V421.363H472.675V422.363ZM472.675 522.933H451.535V524.933H472.675V522.933ZM452.535 523.933V422.363H450.535V523.933H452.535ZM451.535 423.363H472.675V421.363H451.535V423.363ZM471.675 422.363V523.933H473.675V422.363H471.675Z" fill="#183884"/>
<defs>
<filter id="filter0_d" x="544.955" y="600.317" width="266.045" height="266.462" filterUnits="userSpaceOnUse" color-interpolation-filters="sRGB">
<feFlood flood-opacity="0" result="BackgroundImageFix"/>
<feColorMatrix in="SourceAlpha" type="matrix" values="0 0 0 0 0 0 0 0 0 0 0 0 0 0 0 0 0 0 127 0" result="hardAlpha"/>
<feOffset dy="4"/>
<feGaussianBlur stdDeviation="2"/>
<feComposite in2="hardAlpha" operator="out"/>
<feColorMatrix type="matrix" values="0 0 0 0 0 0 0 0 0 0 0 0 0 0 0 0 0 0 0.25 0"/>
<feBlend mode="normal" in2="BackgroundImageFix" result="effect1_dropShadow"/>
<feBlend mode="normal" in="SourceGraphic" in2="effect1_dropShadow" result="shape"/>
</filter>
</defs>
</svg>
