<?xml version="1.0" encoding="UTF-8" standalone="no"?>
<svg
   width="750"
   height="750"
   viewBox="0 0 750 750"
   fill="none"
   version="1.1"
   id="svg40"
   sodipodi:docname="etl.svg"
   inkscape:version="1.1 (ce6663b3b7, 2021-05-25)"
   xmlns:inkscape="http://www.inkscape.org/namespaces/inkscape"
   xmlns:sodipodi="http://sodipodi.sourceforge.net/DTD/sodipodi-0.dtd"
   xmlns="http://www.w3.org/2000/svg"
   xmlns:svg="http://www.w3.org/2000/svg">
  <defs
     id="defs44" />
  <sodipodi:namedview
     id="namedview42"
     pagecolor="#ffffff"
     bordercolor="#666666"
     borderopacity="1.0"
     inkscape:pageshadow="2"
     inkscape:pageopacity="0.0"
     inkscape:pagecheckerboard="0"
     showgrid="false"
     inkscape:zoom="0.64396285"
     inkscape:cx="538.07452"
     inkscape:cy="390.55048"
     inkscape:window-width="1920"
     inkscape:window-height="1015"
     inkscape:window-x="761"
     inkscape:window-y="1080"
     inkscape:window-maximized="1"
     inkscape:current-layer="svg40"
     width="750px" />
  <g
     id="g65"
     transform="matrix(0.83696365,0,0,0.83696365,100.81764,103.96133)">
    <path
       fill-rule="evenodd"
       clip-rule="evenodd"
       d="M 307.5,616 V 578.5 H 273.75 L 253.125,511 243.75,509.125 204.375,492.25 195,486.625 l -61.875,33.75 -37.5,-37.5 33.75,-61.875 -5.625,-9.375 C 116.25,398.5 110.625,385.375 106.875,372.25 L 105,362.875 37.5,342.25 v -52.5 L 101.25,271 105,261.625 c 3.75,-15 9.375,-28.125 16.875,-41.25 L 127.5,211 95.625,149.125 l 37.5,-37.5 60,33.75 9.375,-5.625 c 13.125,-7.5 26.25,-13.125 41.25,-16.875 l 9.375,-3.75 L 273.75,53.5 H 307.5 V 16 H 268.125 C 255,16 243.75,25.375 241.875,38.5 L 225,91 c -11.25,1.875 -20.625,5.625 -30,11.25 L 146.25,76 C 135,70.375 120,72.25 110.625,81.625 l -45,45 C 56.25,136 54.375,151 60,162.25 l 24.375,46.875 c -1.875,4.687 -3.75,9.844 -5.625,15 -1.875,5.156 -3.75,10.313 -5.625,15 L 20.625,256 C 9.375,259.75 0,271 0,284.125 v 63.75 C 0,361 9.375,372.25 22.5,376 L 75,392.875 86.25,421 60,469.75 C 54.375,481 56.25,496 65.625,505.375 l 45,45 C 120,559.75 135,561.625 146.25,556 L 195,529.75 223.125,541 240,595.375 c 3.75,11.25 15,20.625 28.125,20.625 z"
       fill="#000000"
       id="path2" />
    <path
       d="M 312,470.683 C 231.056,465.528 167,398.245 167,316 167,233.755 231.056,166.472 312,161.317 Z"
       stroke="#000000"
       stroke-width="20"
       id="path4" />
    <path
       d="M 313,16 V 616"
       stroke="#000000"
       stroke-width="25"
       id="path6" />
    <path
       d="M 322,192 H 511.5"
       stroke="#000000"
       stroke-width="20"
       id="path8" />
    <path
       d="M 312.998,537.262 H 470"
       stroke="#000000"
       stroke-width="20"
       id="path10" />
    <path
       d="M 319,268 H 580.5"
       stroke="#000000"
       stroke-width="20"
       id="path12" />
    <circle
       cx="460"
       cy="616"
       r="25"
       fill="#ffffff"
       stroke="#000000"
       stroke-width="10"
       id="circle14" />
    <circle
       cx="583"
       cy="104"
       r="25"
       fill="#ffffff"
       stroke="#000000"
       stroke-width="10"
       id="circle16" />
    <circle
       cx="606"
       cy="266"
       r="25"
       fill="#ffffff"
       stroke="#000000"
       stroke-width="10"
       id="circle18" />
    <path
       d="M 319,364 H 580.5"
       stroke="#000000"
       stroke-width="20"
       id="path20" />
    <circle
       cx="606"
       cy="362"
       r="25"
       fill="#ffffff"
       stroke="#000000"
       stroke-width="10"
       id="circle22" />
    <path
       d="m 460,528 v 65.508"
       stroke="#000000"
       stroke-width="20"
       id="path24" />
    <path
       d="M 313,108.738 H 470.002"
       stroke="#000000"
       stroke-width="20"
       id="path26" />
    <circle
       r="25"
       transform="matrix(1,0,0,-1,460.002,30)"
       fill="#ffffff"
       stroke="#000000"
       stroke-width="10"
       id="circle28"
       cx="0"
       cy="0" />
    <path
       d="M 460.002,118 V 52.4923"
       stroke="#000000"
       stroke-width="20"
       id="path30" />
    <path
       d="M 564.323,125.24 504,195.161"
       stroke="#000000"
       stroke-width="20"
       id="path32" />
    <path
       d="M 309,443.4 H 498.5"
       stroke="#000000"
       stroke-width="20"
       id="path34" />
    <circle
       r="25"
       transform="matrix(1,0,0,-1,570,531.4)"
       fill="#ffffff"
       stroke="#000000"
       stroke-width="10"
       id="circle36"
       cx="0"
       cy="0" />
    <path
       d="M 551.323,510.161 491,440.239"
       stroke="#000000"
       stroke-width="20"
       id="path38" />
  </g>
</svg>
