<?xml version="1.0" encoding="UTF-8" standalone="no"?>
<svg
   width="1200"
   height="1229"
   viewBox="0 0 1200 1229"
   fill="none"
   version="1.1"
   id="svg54"
   sodipodi:docname="kalmar.svg"
   inkscape:version="1.1 (ce6663b3b7, 2021-05-25)"
   xmlns:inkscape="http://www.inkscape.org/namespaces/inkscape"
   xmlns:sodipodi="http://sodipodi.sourceforge.net/DTD/sodipodi-0.dtd"
   xmlns="http://www.w3.org/2000/svg"
   xmlns:svg="http://www.w3.org/2000/svg">
  <defs
     id="defs58" />
  <sodipodi:namedview
     id="namedview56"
     pagecolor="#ffffff"
     bordercolor="#666666"
     borderopacity="1.0"
     inkscape:pageshadow="2"
     inkscape:pageopacity="0.0"
     inkscape:pagecheckerboard="0"
     showgrid="false"
     inkscape:zoom="0.67697315"
     inkscape:cx="600.46695"
     inkscape:cy="81.982572"
     inkscape:window-width="1920"
     inkscape:window-height="1015"
     inkscape:window-x="761"
     inkscape:window-y="1080"
     inkscape:window-maximized="1"
     inkscape:current-layer="svg54" />
  <g
     id="g579"
     transform="translate(-227.74102,39.700571)">
    <path
       d="m 651.45192,547.96153 82.134,-90.683"
       stroke="#000000"
       stroke-width="40"
       id="path214"
       style="fill:none" />
    <path
       d="m 732.57092,458.38353 c 164.354,-178.616 403.37298,-212.133 403.00598,-210.678"
       stroke="#000000"
       stroke-width="40"
       id="path216"
       style="fill:none" />
    <circle
       cx="782.19232"
       cy="565.84949"
       r="20"
       transform="rotate(-1.32137)"
       fill="#000000"
       id="circle218" />
    <circle
       cx="849.8595"
       cy="624.42554"
       r="20"
       transform="rotate(-1.32137)"
       fill="#000000"
       id="circle220" />
    <path
       d="m 952.35192,658.82053 c 163.95698,-178.98 188.14398,-412.604 186.72498,-412.115"
       stroke="#000000"
       stroke-width="40"
       id="path222"
       style="fill:none" />
    <path
       d="m 953.07092,658.10953 -88.738,93.936"
       stroke="#000000"
       stroke-width="40"
       id="path224"
       style="fill:none" />
    <path
       d="m 1089.0899,257.55353 c 32.598,-11.242 57.648,2.82 43.06,40.398"
       stroke="#000000"
       stroke-width="20"
       id="path226"
       style="fill:none" />
    <path
       fill-rule="evenodd"
       clip-rule="evenodd"
       d="m 646.60092,522.90653 -122.285,135.534 29.668,26.829 122.285,-135.534 z"
       fill="#000000"
       id="path228" />
    <path
       fill-rule="evenodd"
       clip-rule="evenodd"
       d="m 499.26392,723.76253 c 18.99,-4.88 38.24,-18.867 56.843,-41.12 l -30.69,-25.655 c -15.74,18.83 -28.337,26.036 -36.107,28.033 -6.742,1.732 -9.541,-0.273 -11.109,-2.086 -4.686,-5.42 -9.292,-27.234 13.902,-51.96 l -29.174,-27.366 c -30.963,33.008 -38.289,78.539 -14.985,105.489 12.428,14.372 31.302,19.808 51.32,14.665 z"
       fill="#000000"
       id="path230" />
    <rect
       x="1096.157"
       y="243.10965"
       width="58.6264"
       height="68.232101"
       transform="rotate(-2.17022)"
       fill="#000000"
       id="rect232" />
    <path
       fill-rule="evenodd"
       clip-rule="evenodd"
       d="m 492.06192,630.90653 c 7.434,-8.169 7.195,-20.494 -1.179,-28.114 -8.374,-7.62 -20.958,-6.964 -28.392,1.205 z"
       fill="#000000"
       id="path234" />
    <path
       fill-rule="evenodd"
       clip-rule="evenodd"
       d="m 709.61192,600.75653 -218.683,241.475 29.897,26.905 218.682,-241.475 z"
       fill="#000000"
       id="path236" />
    <path
       fill-rule="evenodd"
       clip-rule="evenodd"
       d="m 784.98092,667.99853 -224.735,248.126 29.9,26.9 224.736,-248.126 z"
       fill="#000000"
       id="path238" />
    <path
       fill-rule="evenodd"
       clip-rule="evenodd"
       d="m 471.67892,901.58953 c 19.027,-4.842 38.292,-18.815 56.884,-41.078 l -30.839,-25.804 c -15.732,18.838 -28.343,26.03 -36.128,28.011 -6.755,1.719 -9.567,-0.299 -11.144,-2.121 -4.713,-5.447 -9.389,-27.331 13.8,-52.061 l -29.323,-27.517 c -30.958,33.014 -38.182,78.647 -14.744,105.731 12.498,14.443 31.437,19.944 51.494,14.839 z"
       fill="#000000"
       id="path240" />
    <path
       fill-rule="evenodd"
       clip-rule="evenodd"
       d="m 464.06192,808.31753 c 7.434,-8.169 7.195,-20.494 -1.179,-28.114 -8.374,-7.62 -20.958,-6.964 -28.392,1.205 z"
       fill="#000000"
       id="path242" />
    <path
       fill-rule="evenodd"
       clip-rule="evenodd"
       d="m 538.03892,961.93753 c 3.072,-19.365 15.186,-39.845 35.592,-60.458 l 28.427,28.141 c -17.266,17.442 -23.256,30.66 -24.513,38.584 -1.09,6.875 1.169,9.473 3.122,10.863 5.836,4.156 27.987,6.69 50.422,-18.727 l 29.988,26.471 c -29.95,33.93397 -74.59,45.50397 -103.612,24.84397 -15.477,-11.026 -22.664,-29.30497 -19.426,-49.71797 z"
       fill="#000000"
       id="path244" />
    <path
       fill-rule="evenodd"
       clip-rule="evenodd"
       d="m 631.16092,960.37553 c 7.434,-8.17 19.726,-9.091 28.1,-1.471 8.374,7.62 8.905,20.21 1.471,28.38 z"
       fill="#000000"
       id="path246" />
    <path
       d="m 883.13192,742.89353 -214.857,-195.517"
       stroke="#000000"
       stroke-width="40"
       id="path248"
       style="fill:none" />
    <path
       d="m 859.78692,756.51353 89.011,-93.212"
       stroke="#000000"
       stroke-width="40"
       id="path250"
       style="fill:none" />
    <path
       d="m 741.57692,885.31053 123.517,-134.582"
       stroke="#000000"
       stroke-width="40"
       id="path252"
       style="fill:none" />
    <path
       d="m 744.96592,881.67853 c -75.343,76.109 5.854,117.373 58.239,58.026"
       stroke="#000000"
       stroke-width="40"
       id="path254"
       style="fill:none" />
    <path
       fill-rule="evenodd"
       clip-rule="evenodd"
       d="m 788.28192,926.50353 c 7.434,-8.17 19.726,-9.091 28.1,-1.471 8.374,7.62 8.905,20.21 1.471,28.38 z"
       fill="#000000"
       id="path256" />
    <path
       d="m 793.68292,392.47453 c -117.228,-106.675 -123.501,-183.759 371.89398,-177.769 52.55,492.635 -33.625,485.59 -150.853,378.914"
       stroke="#000000"
       stroke-width="40"
       id="path258"
       style="fill:none" />
  </g>
</svg>
