<svg width="800" height="800" viewBox="0 0 800 800" fill="none" xmlns="http://www.w3.org/2000/svg">
<circle cx="400" cy="400" r="400" fill="white"/>
<path fill-rule="evenodd" clip-rule="evenodd" d="M333.499 386.109C333.527 392.022 333.499 414.792 333.499 415.5L294.19 390.5C293.993 338.243 293.204 240.001 293.91 236C298.824 208.154 313.047 182.873 334.154 164.465C355.26 146.057 381.946 135.661 409.664 135.048C437.382 134.436 464.416 143.644 486.161 161.105C507.907 178.566 523.017 203.199 528.918 230.806C530.734 239.302 528.027 441.761 527.854 470L528.918 536.493L496.5 480C496.44 476.929 495.174 482.417 495.035 475.059L495.034 475.012L495.034 475.008C493.94 417.128 490.686 244.916 489.569 239.691C485.651 221.362 475.619 205.008 461.182 193.416C446.745 181.823 428.797 175.71 410.395 176.116C391.993 176.523 374.276 183.425 360.263 195.646C346.25 207.867 336.807 224.652 333.545 243.139C332.83 247.193 333.335 352.134 333.499 386.109Z" fill="black"/>
<path d="M283.337 410.348C267.814 396.413 240.007 381.222 219.275 378.915C198.543 376.608 177.609 380.843 159.403 391.025C141.197 401.207 126.631 416.828 117.745 435.7C108.858 454.573 106.096 475.751 109.844 496.271C113.593 516.792 123.664 535.626 138.649 550.138C153.634 564.649 172.782 574.112 193.412 577.2C214.041 580.288 235.121 576.848 253.698 567.36C272.275 557.873 288.562 537.837 298.155 519.314L275.234 495.626C268.907 507.842 250.463 530.779 238.211 537.035C225.96 543.292 212.058 545.561 198.453 543.524C184.847 541.488 172.22 535.247 162.337 525.677C152.455 516.107 145.813 503.686 143.341 490.153C140.869 476.62 142.691 462.653 148.551 450.206C154.412 437.76 164.018 427.459 176.024 420.743C188.031 414.028 201.837 411.236 215.509 412.757C229.182 414.278 262.617 431.31 272.854 440.5L283.337 410.348Z" fill="black"/>
<path d="M495 457.5C492.902 478.254 499.15 509.822 509.515 527.925C519.88 546.027 535.647 560.435 554.607 569.131C573.568 577.827 594.773 580.377 615.255 576.422C635.736 572.467 654.468 562.207 668.829 547.076C683.189 531.946 692.458 512.704 695.338 492.045C698.219 471.385 694.567 450.341 684.893 431.86C675.219 413.379 660.008 398.386 641.389 388.98C622.771 379.573 596.985 378.239 576.369 381.417L570.759 413.898C584.355 411.802 613.756 413.169 626.035 419.372C638.314 425.575 648.345 435.463 654.725 447.651C661.105 459.839 663.513 473.717 661.614 487.342C659.714 500.968 653.601 513.657 644.131 523.636C634.66 533.614 622.307 540.381 608.799 542.989C595.292 545.597 581.307 543.916 568.803 538.181C556.298 532.445 545.9 522.944 539.065 511.005C532.229 499.067 526.262 462.021 527.646 448.334L495 457.5Z" fill="black"/>
<path fill-rule="evenodd" clip-rule="evenodd" d="M438.854 536L484.354 536C494.237 547.771 509.901 569.558 513.546 584.636C518.448 604.912 516.886 626.213 509.08 645.557C501.274 664.901 487.614 681.32 470.012 692.515C452.411 703.709 431.749 709.119 410.92 707.988C390.091 706.856 370.137 699.239 353.853 686.203C337.568 673.167 325.767 655.365 320.103 635.289C314.439 615.212 315.195 593.868 322.265 574.243C329.334 554.617 346.188 536.851 363.354 525L390.712 543.836C379.391 551.652 358.962 572.84 354.3 585.783C349.637 598.726 349.139 612.802 352.875 626.042C356.61 639.282 364.392 651.023 375.132 659.62C385.872 668.217 399.031 673.241 412.768 673.987C426.504 674.733 440.13 671.165 451.738 663.783C463.346 656.4 472.355 645.572 477.503 632.814C482.651 620.057 482.913 602.657 477.503 584.636C470.528 561.4 449.262 544.996 438.854 536Z" fill="black"/>
<path fill-rule="evenodd" clip-rule="evenodd" d="M471.403 452.774L357.354 529.259L375.175 555.831L471.403 491.297L471.403 452.774Z" fill="black"/>
<path fill-rule="evenodd" clip-rule="evenodd" d="M392.854 480L271.101 401L253.354 427.622L356.354 496.284L392.854 480Z" fill="black"/>
<circle cx="385.354" cy="283" r="15" fill="black"/>
<circle cx="444.354" cy="283" r="15" fill="black"/>
</svg>
