<svg width="1000" height="1000" viewBox="0 0 1000 1000" fill="none" xmlns="http://www.w3.org/2000/svg">
<circle cx="500" cy="500" r="500" fill="white"/>
<path d="M708.233 302.97L708.233 302.97C708.288 303.018 708.343 303.066 708.397 303.113C719.223 312.573 721.634 315.032 722.933 317.891C724.238 320.764 724.5 324.213 724.5 338.758V771C724.5 785.495 724.473 795.11 723.513 802.253C722.601 809.036 721.058 811.691 719.374 813.374C717.691 815.058 715.036 816.601 708.253 817.513C701.11 818.473 691.496 818.5 677 818.5H309C294.504 818.5 284.89 818.473 277.747 817.513C270.964 816.601 268.309 815.058 266.626 813.374C264.942 811.691 263.399 809.036 262.487 802.253C261.527 795.11 261.5 785.496 261.5 771V230C261.5 215.504 261.527 205.89 262.487 198.747C263.399 191.964 264.942 189.309 266.626 187.626C268.309 185.942 270.964 184.399 277.747 183.487C284.89 182.527 294.504 182.5 309 182.5H552.486C564.536 182.5 567.41 182.684 569.891 183.616C572.372 184.547 574.659 186.299 583.735 194.227L708.233 302.97Z" fill="white" stroke="black" stroke-width="25"/>
<path d="M576.412 329.014L575.892 197.717C575.878 194.287 579.903 192.432 582.502 194.67L712.941 306.985C715.539 309.222 714.302 313.478 710.909 313.974L580.99 332.956C578.583 333.307 576.422 331.447 576.412 329.014Z" fill="#D9D7D7" stroke="black" stroke-width="20"/>
<g filter="url(#filter0_d)">
<path d="M790 735.2C790 806.249 732.235 863.846 660.977 863.846C589.72 863.846 531.955 806.249 531.955 735.2C531.955 664.15 589.72 606.554 660.977 606.554C679.782 606.554 697.647 610.565 713.759 617.776C720.032 620.583 726.038 623.875 731.731 627.605C766.827 650.596 790 690.2 790 735.2Z" fill="white"/>
<path d="M780 735.2C780 800.698 726.739 853.846 660.977 853.846C595.215 853.846 541.955 800.698 541.955 735.2C541.955 669.701 595.215 616.554 660.977 616.554C678.348 616.554 694.823 620.256 709.674 626.903C715.458 629.492 720.999 632.529 726.251 635.97C758.654 657.196 780 693.721 780 735.2Z" stroke="black" stroke-width="20"/>
</g>
<path d="M652.653 761.635V815H669.347V761.635H707.742V745.076H669.347V742.675L676.358 728.516L684.454 711.957L713 654H694.387L661 721.893L627.613 654H609L637.546 711.957L645.642 728.516L652.653 742.675V745.076H614.259V761.635H652.653Z" fill="black"/>
<rect x="185.124" y="414.844" width="610.379" height="163.156" rx="35" fill="#5672B5" fill-opacity="0.6"/>
<rect x="179" y="401" width="641" height="163.156" rx="35" fill="#183884"/>
<path d="M286.592 485.152C286.592 490.24 285.728 494.96 284 499.312C282.304 503.664 279.888 507.424 276.752 510.592C273.648 513.76 269.904 516.256 265.52 518.08C261.136 519.872 256.272 520.768 250.928 520.768C245.584 520.768 240.72 519.872 236.336 518.08C231.952 516.256 228.192 513.76 225.056 510.592C221.92 507.424 219.488 503.664 217.76 499.312C216.064 494.96 215.216 490.24 215.216 485.152C215.216 480.064 216.064 475.36 217.76 471.04C219.488 466.688 221.92 462.928 225.056 459.76C228.192 456.592 231.952 454.112 236.336 452.32C240.72 450.496 245.584 449.584 250.928 449.584C256.272 449.584 261.136 450.496 265.52 452.32C269.904 454.112 273.648 456.608 276.752 459.808C279.888 462.976 282.304 466.736 284 471.088C285.728 475.408 286.592 480.096 286.592 485.152ZM271.856 485.152C271.856 481.504 271.376 478.24 270.416 475.36C269.456 472.448 268.064 469.984 266.24 467.968C264.448 465.92 262.256 464.368 259.664 463.312C257.104 462.224 254.192 461.68 250.928 461.68C247.664 461.68 244.736 462.224 242.144 463.312C239.552 464.368 237.344 465.92 235.52 467.968C233.728 469.984 232.352 472.448 231.392 475.36C230.432 478.24 229.952 481.504 229.952 485.152C229.952 488.832 230.432 492.128 231.392 495.04C232.352 497.92 233.728 500.368 235.52 502.384C237.344 504.4 239.552 505.952 242.144 507.04C244.736 508.096 247.664 508.624 250.928 508.624C254.192 508.624 257.104 508.096 259.664 507.04C262.256 505.952 264.448 504.4 266.24 502.384C268.064 500.368 269.456 497.92 270.416 495.04C271.376 492.128 271.856 488.832 271.856 485.152ZM349.333 502.864C350.133 502.864 350.805 503.152 351.349 503.728L357.061 509.824C354.245 513.408 350.741 516.128 346.549 517.984C342.389 519.84 337.429 520.768 331.669 520.768C326.453 520.768 321.765 519.888 317.605 518.128C313.445 516.336 309.909 513.856 306.997 510.688C304.085 507.52 301.845 503.76 300.277 499.408C298.709 495.056 297.925 490.304 297.925 485.152C297.925 481.696 298.293 478.416 299.029 475.312C299.797 472.176 300.901 469.296 302.341 466.672C303.781 464.048 305.509 461.68 307.525 459.568C309.573 457.456 311.877 455.664 314.437 454.192C316.997 452.688 319.781 451.552 322.789 450.784C325.829 449.984 329.061 449.584 332.485 449.584C335.045 449.584 337.461 449.808 339.733 450.256C342.037 450.704 344.181 451.328 346.165 452.128C348.149 452.928 349.973 453.904 351.637 455.056C353.333 456.176 354.853 457.408 356.197 458.752L351.349 465.376C351.061 465.792 350.693 466.16 350.245 466.48C349.797 466.8 349.189 466.96 348.421 466.96C347.653 466.96 346.869 466.688 346.069 466.144C345.301 465.6 344.341 464.992 343.189 464.32C342.069 463.648 340.645 463.04 338.917 462.496C337.221 461.952 335.061 461.68 332.437 461.68C329.525 461.68 326.853 462.208 324.421 463.264C321.989 464.32 319.893 465.856 318.133 467.872C316.405 469.856 315.061 472.304 314.101 475.216C313.141 478.128 312.661 481.44 312.661 485.152C312.661 488.896 313.173 492.24 314.197 495.184C315.253 498.096 316.677 500.56 318.469 502.576C320.293 504.592 322.405 506.128 324.805 507.184C327.237 508.208 329.829 508.72 332.581 508.72C334.213 508.72 335.685 508.64 336.997 508.48C338.341 508.32 339.573 508.048 340.693 507.664C341.845 507.28 342.917 506.784 343.909 506.176C344.933 505.568 345.957 504.8 346.981 503.872C347.333 503.584 347.701 503.344 348.085 503.152C348.469 502.96 348.885 502.864 349.333 502.864ZM419.286 461.968H398.934V520H384.486V461.968H364.134V450.352H419.286V461.968ZM497.961 485.152C497.961 490.24 497.097 494.96 495.369 499.312C493.673 503.664 491.257 507.424 488.121 510.592C485.017 513.76 481.273 516.256 476.889 518.08C472.505 519.872 467.641 520.768 462.297 520.768C456.953 520.768 452.089 519.872 447.705 518.08C443.321 516.256 439.561 513.76 436.425 510.592C433.289 507.424 430.857 503.664 429.129 499.312C427.433 494.96 426.585 490.24 426.585 485.152C426.585 480.064 427.433 475.36 429.129 471.04C430.857 466.688 433.289 462.928 436.425 459.76C439.561 456.592 443.321 454.112 447.705 452.32C452.089 450.496 456.953 449.584 462.297 449.584C467.641 449.584 472.505 450.496 476.889 452.32C481.273 454.112 485.017 456.608 488.121 459.808C491.257 462.976 493.673 466.736 495.369 471.088C497.097 475.408 497.961 480.096 497.961 485.152ZM483.225 485.152C483.225 481.504 482.745 478.24 481.785 475.36C480.825 472.448 479.433 469.984 477.609 467.968C475.817 465.92 473.625 464.368 471.033 463.312C468.473 462.224 465.561 461.68 462.297 461.68C459.033 461.68 456.105 462.224 453.513 463.312C450.921 464.368 448.713 465.92 446.889 467.968C445.097 469.984 443.721 472.448 442.761 475.36C441.801 478.24 441.321 481.504 441.321 485.152C441.321 488.832 441.801 492.128 442.761 495.04C443.721 497.92 445.097 500.368 446.889 502.384C448.713 504.4 450.921 505.952 453.513 507.04C456.105 508.096 459.033 508.624 462.297 508.624C465.561 508.624 468.473 508.096 471.033 507.04C473.625 505.952 475.817 504.4 477.609 502.384C479.433 500.368 480.825 497.92 481.785 495.04C482.745 492.128 483.225 488.832 483.225 485.152ZM575.725 485.152C575.725 490.24 574.861 494.928 573.133 499.216C571.437 503.472 569.021 507.136 565.885 510.208C562.781 513.28 559.037 515.68 554.653 517.408C550.269 519.136 545.405 520 540.061 520H513.277V450.352H540.061C545.405 450.352 550.269 451.216 554.653 452.944C559.037 454.672 562.781 457.088 565.885 460.192C569.021 463.264 571.437 466.928 573.133 471.184C574.861 475.44 575.725 480.096 575.725 485.152ZM560.941 485.152C560.941 481.504 560.461 478.224 559.501 475.312C558.541 472.4 557.165 469.936 555.373 467.92C553.581 465.904 551.389 464.352 548.797 463.264C546.237 462.176 543.325 461.632 540.061 461.632H527.773V508.72H540.061C543.325 508.72 546.237 508.192 548.797 507.136C551.389 506.048 553.581 504.496 555.373 502.48C557.165 500.432 558.541 497.952 559.501 495.04C560.461 492.128 560.941 488.832 560.941 485.152ZM605.605 520H591.109V450.352H605.605V520ZM653.483 508.48C655.819 508.48 657.915 508.096 659.771 507.328C661.627 506.528 663.195 505.408 664.475 503.968C665.755 502.528 666.731 500.784 667.403 498.736C668.075 496.688 668.411 494.384 668.411 491.824V450.352H682.811V491.824C682.811 496.048 682.123 499.936 680.747 503.488C679.403 507.008 677.467 510.048 674.939 512.608C672.411 515.168 669.339 517.168 665.723 518.608C662.107 520.048 658.027 520.768 653.483 520.768C648.939 520.768 644.843 520.048 641.195 518.608C637.579 517.168 634.507 515.168 631.979 512.608C629.451 510.048 627.499 507.008 626.123 503.488C624.779 499.936 624.107 496.048 624.107 491.824V450.352H638.507V491.824C638.507 494.384 638.843 496.688 639.515 498.736C640.187 500.784 641.163 502.528 642.443 503.968C643.723 505.408 645.291 506.528 647.147 507.328C649.003 508.096 651.115 508.48 653.483 508.48ZM778.102 450.352V520H765.382V477.232C765.382 476.336 765.398 475.376 765.43 474.352C765.494 473.328 765.59 472.288 765.718 471.232L745.798 509.008C744.71 511.088 743.03 512.128 740.758 512.128H738.742C737.622 512.128 736.63 511.872 735.766 511.36C734.902 510.816 734.214 510.032 733.702 509.008L713.686 471.088C713.782 472.208 713.862 473.296 713.926 474.352C713.99 475.376 714.022 476.336 714.022 477.232V520H701.302V450.352H712.246C712.854 450.352 713.398 450.368 713.878 450.4C714.358 450.432 714.774 450.528 715.126 450.688C715.51 450.816 715.846 451.04 716.134 451.36C716.454 451.648 716.758 452.064 717.046 452.608L736.534 489.76C737.142 490.88 737.702 492.032 738.214 493.216C738.758 494.4 739.27 495.616 739.75 496.864C740.23 495.584 740.726 494.336 741.238 493.12C741.782 491.904 742.358 490.736 742.966 489.616L762.31 452.608C762.598 452.064 762.902 451.648 763.222 451.36C763.542 451.04 763.878 450.816 764.23 450.688C764.614 450.528 765.03 450.432 765.478 450.4C765.958 450.368 766.518 450.352 767.158 450.352H778.102Z" fill="white"/>
<path fill-rule="evenodd" clip-rule="evenodd" d="M530.689 806C523.948 793.329 518.994 779.644 516.067 765.328C508.633 728.952 514.823 691.083 533.442 659.053C552.06 627.022 581.781 603.108 616.851 591.94C648.201 581.957 681.833 582.794 712.5 594.123V616.878C684.235 604.561 653.625 603.744 624 612C593.631 621.67 568.892 642.266 551 669.5C535.392 697.266 529.125 729.763 535.563 761.263C538.848 777.335 545.086 792.487 553.818 806H530.689Z" fill="#D9D7D7" fill-opacity="0.5"/>
<defs>
<filter id="filter0_d" x="527.955" y="605.384" width="266.045" height="266.462" filterUnits="userSpaceOnUse" color-interpolation-filters="sRGB">
<feFlood flood-opacity="0" result="BackgroundImageFix"/>
<feColorMatrix in="SourceAlpha" type="matrix" values="0 0 0 0 0 0 0 0 0 0 0 0 0 0 0 0 0 0 127 0" result="hardAlpha"/>
<feOffset dy="4"/>
<feGaussianBlur stdDeviation="2"/>
<feComposite in2="hardAlpha" operator="out"/>
<feColorMatrix type="matrix" values="0 0 0 0 0 0 0 0 0 0 0 0 0 0 0 0 0 0 0.25 0"/>
<feBlend mode="normal" in2="BackgroundImageFix" result="effect1_dropShadow"/>
<feBlend mode="normal" in="SourceGraphic" in2="effect1_dropShadow" result="shape"/>
</filter>
</defs>
</svg>
