<?xml version="1.0" encoding="UTF-8" standalone="no"?>
<svg
   width="800"
   height="800"
   viewBox="0 0 800 800"
   fill="none"
   version="1.1"
   id="svg6"
   sodipodi:docname="spedytorzy.svg"
   inkscape:version="1.1 (ce6663b3b7, 2021-05-25)"
   xmlns:inkscape="http://www.inkscape.org/namespaces/inkscape"
   xmlns:sodipodi="http://sodipodi.sourceforge.net/DTD/sodipodi-0.dtd"
   xmlns="http://www.w3.org/2000/svg"
   xmlns:svg="http://www.w3.org/2000/svg">
  <defs
     id="defs10" />
  <sodipodi:namedview
     id="namedview8"
     pagecolor="#ffffff"
     bordercolor="#666666"
     borderopacity="1.0"
     inkscape:pageshadow="2"
     inkscape:pageopacity="0.0"
     inkscape:pagecheckerboard="0"
     showgrid="false"
     width="800px"
     inkscape:zoom="0.73539105"
     inkscape:cx="351.51366"
     inkscape:cy="495.65466"
     inkscape:window-width="1920"
     inkscape:window-height="1015"
     inkscape:window-x="761"
     inkscape:window-y="1080"
     inkscape:window-maximized="1"
     inkscape:current-layer="svg6" />
  <path
     d="m 633.41943,312.56608 h -72.92056 v -83.6069 c 0,-4.4353 -1.92101,-8.68853 -5.33945,-11.82458 -3.41845,-3.13605 -8.05563,-4.89729 -12.89099,-4.89729 H 141.20598 c -4.83536,0 -9.47254,1.76124 -12.89099,4.89729 -3.41844,3.13605 -5.33946,7.38928 -5.33946,11.82458 v 300.98386 c 0,4.4353 1.92102,8.68853 5.33946,11.82459 3.41845,3.13604 8.05563,4.89728 12.89099,4.89728 h 18.23046 V 245.67983 h 364.60154 l 2.70998,183.93567 c 9.28924,0 13.76665,0.0459 23.35934,0 h 10.39157 v -83.6069 h 72.92056 c 9.66949,0 18.94386,3.52372 25.78075,9.79458 6.83812,6.27209 10.67891,14.77856 10.67891,23.64794 v 16.72187 H 550.65475 l 1.82318,33.44251 h 117.40116 v 83.6069 H 626.128 c -6.39596,-13.6267 -17.00551,-25.23577 -30.51579,-33.39297 -13.51027,-8.15719 -29.33047,-12.50456 -45.50491,-12.50456 -16.17442,0 -31.99462,4.34737 -45.5049,12.50456 -13.51027,8.1572 -24.11859,19.76627 -30.51454,33.39297 H 349.57609 c -6.27457,-13.72702 -16.84573,-25.43766 -30.37706,-33.65307 -13.53133,-8.21541 -29.41594,-12.56401 -45.64238,-12.49836 -15.41767,0.31211 -30.40679,4.71274 -43.15659,12.66928 -12.75104,7.95778 -22.71529,19.13089 -28.69138,32.17174 -5.97607,13.03963 -7.70759,27.38718 -4.98522,41.31113 2.72236,13.92272 9.78219,26.82486 20.32734,37.14706 10.54391,10.32097 24.12107,17.62231 39.09161,21.0197 14.96931,3.39615 30.69165,2.74466 45.26709,-1.87767 14.57421,-4.62232 27.3785,-13.01732 36.86468,-24.16937 9.48494,-11.15328 15.24674,-24.58677 16.58935,-38.67793 h 114.48434 c 2.31736,18.28867 11.87909,35.15917 26.86944,47.40363 14.99037,12.2457 34.36401,19.01074 54.43744,19.01074 20.07344,0 39.44584,-6.76504 54.43621,-19.01074 14.9916,-12.24446 24.55333,-29.11496 26.87068,-47.40363 h 56.14789 c 4.83537,0 9.47256,-1.76124 12.891,-4.89728 3.41844,-3.13606 5.33946,-7.38929 5.33946,-11.82459 V 379.45112 c 0,-17.73875 -7.68283,-34.75168 -21.35783,-47.29464 -13.675,-12.54419 -32.22253,-19.5904 -51.56273,-19.5904 z M 273.55665,580.10743 c -5.92283,0.35299 -11.86051,-0.41244 -17.44644,-2.24924 -5.58717,-1.83555 -10.70369,-4.70407 -15.03372,-8.42596 -4.33002,-3.72189 -7.7819,-8.21913 -10.14137,-13.21426 -2.35946,-4.99514 -3.57698,-10.38042 -3.57698,-15.82392 0,-5.44349 1.21752,-10.82877 3.57698,-15.82268 2.35947,-4.99513 5.81135,-9.49236 10.14137,-13.21549 4.33003,-3.72189 9.44655,-6.58916 15.03372,-8.42596 5.58593,-1.83555 11.52361,-2.60099 17.44644,-2.24924 5.92158,-0.35175 11.8605,0.41369 17.44643,2.24924 5.58717,1.8368 10.70368,4.70407 15.03371,8.42596 4.33002,3.72313 7.7819,8.22036 10.14137,13.21549 2.35947,4.99391 3.57698,10.37919 3.57698,15.82268 0,5.4435 -1.21751,10.82878 -3.57698,15.82392 -2.35947,4.99513 -5.81135,9.49237 -10.14137,13.21426 -4.33003,3.72189 -9.44654,6.59041 -15.03371,8.42596 -5.58593,1.8368 -11.52485,2.60223 -17.44643,2.24924 z m 276.55065,0 c -8.48169,-0.39263 -16.65251,-3.0605 -23.49806,-7.67292 -6.84555,-4.61242 -12.06363,-10.96503 -15.00894,-18.27256 -2.94531,-7.30753 -3.4878,-15.24675 -1.56059,-22.8342 1.92844,-7.58622 6.24113,-14.4875 12.40547,-19.84801 6.16434,-5.35928 13.90786,-8.94245 22.27065,-10.30363 8.36279,-1.36118 16.97702,-0.4397 24.77504,2.64681 7.798,3.08775 14.43671,8.20674 19.09248,14.72284 4.65577,6.51609 7.12423,14.14194 7.09946,21.93251 -0.33317,10.79287 -5.3184,21.02342 -13.86079,28.4511 -8.54239,7.42892 -19.9471,11.44807 -31.71472,11.17806 z"
     fill="#000000"
     id="path4"
     style="stroke-width:1.23856" />
</svg>
