<svg width="800" height="800" viewBox="0 0 800 800" fill="none" xmlns="http://www.w3.org/2000/svg">
<circle cx="400" cy="400" r="400" fill="white"/>
<path fill-rule="evenodd" clip-rule="evenodd" d="M140.003 246.628C140.002 243.484 142.542 240.93 145.687 240.915L298.501 240.21C301.812 240.194 304.509 242.864 304.528 246.175L304.881 307.536L182.213 306.836C182.213 306.836 156.487 270.141 140.003 246.628V246.628Z" fill="black"/>
<path fill-rule="evenodd" clip-rule="evenodd" d="M338.479 301.584L304.229 244.182H299.459L265.209 301.584H338.479Z" fill="black"/>
<path fill-rule="evenodd" clip-rule="evenodd" d="M241.328 240.397L428.216 557.539L384.307 619.766L369.935 629.218L163.346 278.644L221.387 240.473L241.328 240.397Z" fill="black"/>
<path fill-rule="evenodd" clip-rule="evenodd" d="M387.29 554.701L431.325 632.128V632.128C433.155 633.449 435.634 632.959 436.825 631.041L499.297 530.425C500.741 528.1 500.112 524.956 497.885 523.368L429.99 474.951L387.29 554.701Z" fill="black"/>
<path fill-rule="evenodd" clip-rule="evenodd" d="M469.593 523.636L321.822 273.586C319.293 269.307 313.879 268.057 309.73 270.793L259.737 303.764C255.588 306.501 254.274 312.188 256.803 316.467L423.854 599.142L469.593 523.636Z" fill="black"/>
<ellipse cx="403.867" cy="605.241" rx="39.4177" ry="47.009" fill="black"/>
<path d="M319.08 333.74C401.045 383.621 431.194 612.419 532.794 467.277" stroke="black" stroke-width="7"/>
<path d="M564.972 400.351C562.642 404.276 556.956 404.264 554.641 400.329L465.738 249.256C463.385 245.256 466.267 240.214 470.907 240.214L649.46 240.214C654.111 240.214 656.995 245.278 654.622 249.277L564.972 400.351Z" fill="#074A8B"/>
<line y1="-0.5" x2="90.1735" y2="-0.5" transform="matrix(0.517281 -0.855816 0.839702 0.543047 495.223 534.671)" stroke="black"/>
<path d="M482.455 517.826L553.01 439.278L537.407 467.65L499.929 529.209L482.455 517.826Z" fill="black"/>
<ellipse cx="572.667" cy="534.248" rx="0.463737" ry="0.959367" fill="#C4C4C4"/>
<path d="M438.654 472.848C470.647 515.54 496.614 504.508 519.337 477.645" stroke="black"/>
<path d="M478.528 509.305L506.815 490.117L510.427 507.168L482.709 520.595L478.528 509.305Z" fill="black"/>
<path d="M498.005 503.068C498.005 506.247 474.694 519.857 471.108 519.857C467.523 519.857 453.486 500.492 453.486 497.313C453.486 494.134 474.479 502.108 478.064 502.108C498.005 501.628 504.497 499.71 498.005 503.068Z" fill="black"/>
<rect width="7.33431" height="1.89548" transform="matrix(0.958045 -0.286619 0.269282 0.963061 486.875 501.044)" fill="black"/>
<path d="M443.748 479.732L446.067 482.13L450.24 486.927L447.458 484.529L466.675 498.938L465.392 500.827L444.493 485.632L443.748 479.732Z" fill="black"/>
<path d="M465.833 497.792L479.919 502.109L478.723 503.315L465.503 498.834L465.833 497.792Z" fill="black"/>
<path d="M478.528 501.63L487.339 501.15L486.876 503.548H478.528V501.63Z" fill="black"/>
</svg>
